<svg xmlns="http://www.w3.org/2000/svg" height="512" viewBox="0 0 64 64" width="512"><g id="ad"><path d="m40.821 46.011h.007l4.998.019h.024c2.312 0 4.457-1.146 5.741-3.071 1.576-2.364 2.409-5.116 2.409-7.958v-2.026c1.689-.211 3-1.656 3-3.401 0-.528-.125-1.058-.362-1.533l-3.639-7.278c-.028-3.202-.628-6.33-1.786-9.311 1.135-1.536 1.786-3.428 1.787-5.451 0-.473-.331-.881-.794-.979l-17.154-3.612c-1.293-.272-2.618-.41-3.938-.41-10.539 0-19.113 8.574-19.114 19.114 0 7.915 2.931 15.499 8.255 21.355l.428.47c.849.934 1.316 2.144 1.316 3.405 0 2.288-1.545 4.299-3.756 4.89l-2.771.739c-4.988 1.33-8.472 5.865-8.473 11.027 0 .265.105.52.293.707s.442.293.707.293h45.001c.265 0 .52-.105.707-.293s.293-.442.293-.707c0-5.162-3.485-9.697-8.473-11.027l-5.177-1.381c-.795-.213-1.351-.936-1.351-1.76 0-.488.19-.946.536-1.29.344-.343.8-.531 1.286-.531zm-8.821 14.989h-2v-12c0-6.617 5.383-12 12-12h9.833c-.111.681-.282 1.349-.505 2h-9.327c-5.514 0-10 4.486-10 10v12zm-18-40.888c0-9.436 7.678-17.112 17.114-17.112 1.182 0 2.368.124 3.526.367l16.316 3.435c-.311 2.806-2.234 5.174-4.982 6.033l-5.384 1.683c-2.817.88-5.136 2.871-6.476 5.455-.757-.612-1.714-.973-2.744-.973-2.409 0-4.369 1.96-4.369 4.369v1.964c0 2.509.812 4.994 2.281 7.026-1.711 3.35-3.846 6.448-6.346 9.255-.224-.361-.482-.703-.772-1.023l-.428-.47c-4.988-5.486-7.735-12.593-7.734-20.01zm1.987 32.792 2.771-.739c3.085-.823 5.241-3.628 5.241-6.821 0-.567-.074-1.125-.206-1.667 2.797-3.008 5.17-6.367 7.073-10.003.46.202.955.326 1.467.326 2.021 0 3.667-1.645 3.667-3.667v-1.333h-2v1.333c0 .919-.748 1.667-1.667 1.667-.522 0-1.021-.249-1.333-.667-1.29-1.719-2-3.85-2-6v-1.964c0-1.306 1.063-2.369 2.369-2.369 1.089 0 2.035.738 2.299 1.795l.362 1.448 1.94-.485-.362-1.448c-.039-.156-.099-.301-.153-.448.972-2.585 3.084-4.607 5.731-5.434l5.384-1.683c1.163-.363 2.21-.938 3.106-1.675.878 2.553 1.323 5.214 1.323 7.931 0 .155.036.309.105.447l3.744 7.487c.099.198.151.418.151.639 0 .787-.64 1.427-1.427 1.427h-.573c-.552 0-1 .448-1 1v3h-10c-7.72 0-14 6.28-14 14v12h-18.947c.41-3.833 3.146-7.085 6.935-8.096zm23.849-1.381 5.176 1.381c3.789 1.011 6.525 4.263 6.935 8.096h-17.947v-12c0-4.411 3.589-8 8-8h8.442c-.161.288-.331.572-.515.849-.911 1.366-2.434 2.181-4.076 2.181h-.017l-4.998-.019h-.015c-1.018 0-1.975.396-2.697 1.114-.725.722-1.124 1.684-1.124 2.707 0 1.729 1.166 3.247 2.836 3.691z"></path></g></svg>