<svg xmlns="http://www.w3.org/2000/svg" id="Layer_1" height="512" viewBox="0 0 512.001 512.001" width="512"><g><path d="m342.508 343.141c9.914-.309 9.911-14.699 0-15-9.913.302-9.912 14.693 0 15z"></path><path d="m350.008 371.704c9.914-.309 9.911-14.699 0-15-9.913.303-9.912 14.693 0 15z"></path><path d="m334.038 397.61c9.914-.309 9.911-14.699 0-15-9.913.302-9.912 14.693 0 15z"></path><path d="m309.671 415.889c9.914-.309 9.911-14.699 0-15-9.913.302-9.912 14.693 0 15z"></path><path d="m280.648 425.41c9.914-.309 9.911-14.699 0-15-9.913.302-9.912 14.692 0 15z"></path><path d="m261.322 448.768c9.914-.309 9.911-14.699 0-15-9.913.303-9.912 14.693 0 15z"></path><path d="m207.389 477.758c9.914-.309 9.911-14.699 0-15-9.913.303-9.912 14.693 0 15z"></path><path d="m234.483 463.546c9.914-.309 9.911-14.699 0-15-9.913.302-9.912 14.693 0 15z"></path><path d="m177.748 478.337c9.914-.309 9.911-14.699 0-15-9.913.302-9.912 14.693 0 15z"></path><path d="m158.348 455.909c9.914-.309 9.911-14.699 0-15-9.913.302-9.911 14.693 0 15z"></path><path d="m497.725 503.525-33.172-253.072c-3.719-40.849-30.746-76.247-68.91-90.259l-71.961-30.3c-7.699-3.242-12.673-10.723-12.673-19.06v-19.781l12.309-7.442c13.297-8.04 21.558-22.676 21.558-38.198v-37.913c0-4.142-3.358-7.5-7.5-7.5s-7.5 3.358-7.5 7.5v37.913c0 10.304-5.486 20.022-14.318 25.362l-44.327 26.799c-12.473 7.54-27.969 7.541-40.441 0l-44.327-26.798c-8.832-5.34-14.318-15.058-14.318-25.362v-37.914c0-4.142-3.358-7.5-7.5-7.5s-7.5 3.358-7.5 7.5v37.913c0 15.522 8.26 30.159 21.558 38.198l13.451 8.132v18.663c0 8.342-4.979 15.825-12.685 19.064l-33.218 13.963c-3.818 1.605-5.613 6.002-4.008 9.82 2.721 4.16 5.994 5.496 9.82 4.008l33.218-13.963c13.287-5.585 21.873-18.497 21.873-32.893v-9.594c14.252 8.591 26.489 17.797 43.858 17.424 17.736.422 30.482-9.447 44.999-18.115v10.713c0 14.387 8.578 27.294 21.852 32.884l72.127 30.37c33.03 11.934 56.482 42.511 59.64 77.86.162.244 33.088 253.25 33.226 253.527 1.493 9.647 15.854 8.045 14.869-1.949z"></path><path d="m399.796 298.78-.006-39.607c0-4.142-3.359-7.5-7.501-7.499s-7.5 3.359-7.499 7.501l.006 40.23c.002 14.208-9.347 25.464-16.544 36.863-.683 1.082-1.078 2.32-1.147 3.598l-3.508 64.616c-.225 4.136 2.946 7.671 7.082 7.896 4.135.235 7.671-2.946 7.896-7.082l3.403-62.668 7.864-12.455 29.383 175.566c.622 3.721 4.914 6.784 8.635 6.159 4.085-.684 6.843-4.55 6.159-8.635z"></path><path d="m369.372 436.455c-4.159-.236-7.671 2.946-7.896 7.082l-3.288 60.557c-.225 4.136 2.946 7.671 7.082 7.896 4.094.235 7.682-2.939 7.896-7.082 0 0 3.288-60.557 3.288-60.557.225-4.137-2.946-7.672-7.082-7.896z"></path><path d="m134.334 339.846c-.067-1.183-.414-2.333-1.011-3.355-6.84-11.714-16.278-23.939-16.23-38.114.002.001.132-39.198.133-39.201.002-4.14-3.357-7.503-7.5-7.502-4.13 0-7.485 3.341-7.5 7.475l-.132 38.711-26.337 205.687c-.526 4.109 2.378 7.866 6.487 8.392 3.737.474 7.915-2.759 8.392-6.487l22.296-174.134 6.528 11.18 9.255 162.428c.236 4.135 3.786 7.296 7.915 7.061 4.135-.235 7.297-3.779 7.061-7.915z"></path><path d="m111.692 174.221c9.145-3.584 4.33-17.234-5.145-14.09-38.305 13.985-65.428 49.5-69.096 90.464 0 0-23.192 253.221-23.192 253.221-.378 4.125 2.66 7.775 6.785 8.153 3.75.346 7.813-3.07 8.153-6.785l23.193-253.236c3.153-35.216 26.431-65.726 59.302-77.727z"></path><path d="m157.058 394.78c9.913-.309 9.911-14.693 0-15-9.913.309-9.911 14.692 0 15z"></path><path d="m157.058 425.41c9.914-.309 9.911-14.699 0-15-9.913.302-9.912 14.692 0 15z"></path><path d="m178.458 335.15c6.498-7.508-4.099-17.253-11.03-10.16-6.495 7.492 4.094 17.243 11.03 10.16z"></path><path d="m160.428 349.49c-9.72-1.996-13.055 11.99-3.48 14.6 9.689 1.453 13.144-11.728 3.48-14.6z"></path><path d="m319.788 323.03c7.827.022 10.422-10.744 3.3-14.24-3.73-1.82-8.22-.28-10.03 3.45-2.506 4.812 1.346 10.903 6.73 10.79z"></path><path d="m297.438 310.6c-.309-9.914-14.699-9.911-15 0 .303 9.913 14.692 9.912 15 0z"></path><path d="m266.808 310.6c-.309-9.913-14.693-9.911-15 0 .309 9.913 14.692 9.911 15 0z"></path><path d="m236.188 310.6c-.309-9.914-14.699-9.911-15 0 .303 9.913 14.692 9.912 15 0z"></path><path d="m198.388 321.13c4.604 0 8.607-5.353 7.12-9.85-1.3-3.94-5.54-6.07-9.48-4.77-8.044 2.742-6.018 14.582 2.36 14.62z"></path><path d="m332.572 354.623c-.421-1.07-10.582-26.199-34.19-26.199h-81.12c-23.346 0-42.338 18.965-42.338 42.277v68.303c0 12.631 13.856 20.93 24.996 15.052l46.624-24.601c10.943-5.774 18.427-16.125 20.62-27.998 30.518-1.947 54.643-16.98 65.289-41.054.81-1.833.853-3.915.119-5.78zm-93.029 61.565-46.624 24.601c-1.675.528-2.673-.067-2.996-1.785v-68.303c0-15.041 12.264-27.277 27.338-27.277h35.572v50.751c0 9.252-5.092 17.687-13.29 22.013zm28.29-29.805v-42.959h30.548c9.959 0 16.29 9.218 18.885 13.954-8.844 16.875-26.472 27.18-49.433 29.005z"></path><path d="m230.943 51.807h40.131c9.902-.301 9.921-14.692 0-15h-40.131c-4.142 0-7.5 3.358-7.5 7.5s3.358 7.5 7.5 7.5z"></path></g></svg>