<svg xmlns="http://www.w3.org/2000/svg" id="Capa_1" height="512" viewBox="0 0 512.005 512.005" width="512"><g><g><path d="m459.14 300.415c-.314-5.514-5.042-9.733-10.553-9.414-5.514.313-9.729 5.038-9.415 10.553 3.959 69.469 17.046 137.973 38.898 203.608 1.396 4.191 5.298 6.844 9.486 6.844 1.047 0 2.112-.166 3.16-.515 5.24-1.745 8.074-7.407 6.329-12.647-21.293-63.961-34.047-130.722-37.905-198.429z"></path><path d="m448.588 220.986c.194.012.387.017.578.017 5.262 0 9.672-4.11 9.975-9.431 3.859-67.698 16.612-134.453 37.905-198.41 1.745-5.24-1.089-10.902-6.329-12.647-5.242-1.743-10.902 1.09-12.646 6.329-21.851 65.633-34.937 134.13-38.897 203.59-.315 5.513 3.9 10.238 9.414 10.552z"></path><path d="m21.289.514c-5.24 1.745-8.074 7.407-6.329 12.647 25.99 78.067 39.168 159.771 39.168 242.841s-13.179 164.774-39.168 242.841c-1.745 5.24 1.089 10.902 6.329 12.647 1.048.349 2.113.515 3.16.515 4.188 0 8.091-2.652 9.487-6.844 26.669-80.109 40.192-163.938 40.192-249.159s-13.523-169.049-40.192-249.159c-1.745-5.239-7.409-8.071-12.647-6.329z"></path><circle cx="447.877" cy="256.003" r="10"></circle><path d="m356.396 223.275c-11.857 4.288-24.467 7.963-36.728 10.68.945-.824 1.888-1.65 2.807-2.509 17.008-15.899 28.288-36.36 32.618-59.171 5.062-26.667-9.638-53.271-34.93-63.25-.017-.007-.11-.044-.126-.05-9.515-3.723-19.865-4.778-29.93-3.049-1.189.205-1.993-.338-2.285-.58-.695-.578-.704-1.211-.707-1.497v-93.847c0-5.522-4.477-10-10-10s-10 4.478-10 10l.002 94.191c.085 6.393 2.971 12.417 7.917 16.53 5.12 4.258 11.848 6.048 18.456 4.913 6.477-1.11 13.138-.432 19.21 1.943.008.003.092.036.099.039 16.395 6.469 25.917 23.68 22.644 40.925-3.533 18.611-12.74 35.311-26.626 48.292-15.488 14.479-35.666 22.959-56.815 23.878-20.937.896-41.541-5.581-58.039-18.274-6.094-4.688-9.036-12.387-7.678-20.092 1.439-8.165 8.086-14.89 16.54-16.732 22.165-4.834 42-16.327 57.361-33.237 3.642-4.01 3.429-10.191-.481-13.941-9.544-9.152-14.8-21.437-14.8-34.588v-93.847c0-5.522-4.477-10-10-10s-10 4.478-10 10v93.847c0 15.217 4.953 29.606 14.116 41.428-11.469 10.36-25.299 17.492-40.456 20.798-16.548 3.607-29.099 16.482-31.976 32.801-1.907 10.818.574 21.643 6.562 30.317-5.586-1.628-11.132-3.408-16.622-5.372-5.456-2.001-10.955-2.811-16.345-2.419-19.259 1.414-34.768 17.013-36.077 36.284-.744 10.949 3.022 21.331 10.07 29.048-6.404 7.087-10.163 16.425-10.163 26.256 0 9.826 3.754 19.16 10.153 26.245-7.192 7.859-10.947 18.477-10.014 29.676 1.394 16.736 12.739 30.109 28.398 34.358 2.345 13.371 10.063 25.295 21.652 32.921 1.694 1.114 3.601 1.647 5.488 1.647 3.252 0 6.441-1.584 8.363-4.504 3.036-4.613 1.757-10.814-2.856-13.851-5.878-3.868-10.09-9.584-12.093-16.105 5.129-1.354 9.958-3.745 14.175-7.053 8.382 7.921 19.505 12.433 31.399 12.433h3.985c4.575 20.46 22.88 35.8 44.7 35.8h8.471l.2 57.48c.019 5.509 4.491 9.965 10 9.965h40.165c5.523 0 10-4.478 10-10v-46.168c3.404.954 6.96 1.446 10.59 1.446 7.558 0 14.761-2.117 20.961-6.077 7.525 4.801 16.507 6.883 25.677 5.797 17.747-2.102 31.745-15.936 34.042-33.643 1.522-11.74-2.262-23.166-9.842-31.5 6.413-7.089 10.178-16.435 10.178-26.273 0-9.85-3.774-19.206-10.201-26.297 6.427-7.091 10.201-16.448 10.201-26.298 0-9.825-3.754-19.158-10.151-26.243 7.214-7.881 10.967-18.534 10.004-29.772-1.614-18.841-16.449-33.774-35.272-35.51-5.473-.503-10.849.106-15.991 1.811zm-110.364 190.377c-.417 3.669-.301 7.326.289 10.879-13.744-.55-24.758-11.897-24.758-25.773 0-5.522-4.477-10-10-10h-12.885c-7.471 0-14.398-3.169-19.254-8.633 1.84-4.581 2.826-9.51 2.826-14.54v-51.757c1.652.211 3.322.318 5 .318 7.086 0 14-1.936 20.01-5.485 6.871 6.389 16.002 10.098 25.635 10.098 4.552 0 8.992-.828 13.14-2.375v9.936c0 6.943-5.648 12.592-12.592 12.592h-18.543c-5.523 0-10 4.478-10 10s4.477 10 10 10h18.544c17.971 0 32.592-14.621 32.592-32.592v-9.705c3.965 1.398 8.184 2.145 12.504 2.145 9.765 0 18.945-3.76 25.82-10.249 5.881 3.65 12.718 5.637 19.825 5.637 1.825 0 3.636-.131 5.419-.388v25.152h-34.191c-5.523 0-10 4.478-10 10s4.477 10 10 10h34.191v20.311h-47.635c-17.674-.002-33.844 15.981-35.937 34.429zm130.851-65.331c6.635 3.151 10.922 9.928 10.922 17.264 0 7.337-4.288 14.114-10.923 17.267-3.487 1.656-5.709 5.173-5.709 9.033s2.223 7.376 5.71 9.032c7.509 3.565 11.83 11.552 10.751 19.87-1.134 8.742-7.789 15.314-16.56 16.353-6.055.715-11.935-1.366-16.125-5.717-1.885-1.958-4.486-3.064-7.204-3.064s-5.318 1.106-7.204 3.063c-3.638 3.778-8.522 5.859-13.754 5.859-5.1 0-9.899-1.994-13.512-5.614-2.858-2.865-7.162-3.724-10.9-2.178-3.739 1.547-6.178 5.194-6.178 9.241v53.272h-20.197l-.181-51.906c-.01-2.884-1.265-5.624-3.443-7.516-4.838-4.201-7.197-10.279-6.472-16.675 1.002-8.831 7.799-15.634 16.599-16.685h57.102c5.523 0 10-4.478 10-10v-89.774c0-3.697-2.04-7.092-5.303-8.828-3.262-1.737-7.219-1.531-10.285.535-2.905 1.958-6.305 2.992-9.832 2.992-5.262 0-10.21-2.327-13.576-6.385-2.125-2.562-5.389-3.904-8.7-3.564-3.313.334-6.242 2.295-7.813 5.23-3.081 5.756-9.042 9.331-15.556 9.331-5.825 0-11.27-2.879-14.567-7.702-1.864-2.726-4.953-4.356-8.255-4.356s-6.392 1.631-8.255 4.356c-3.297 4.823-8.742 7.702-14.567 7.702-6.349 0-12.237-3.445-15.365-8.992-1.572-2.786-4.382-4.652-7.56-5.021-3.176-.372-6.34.807-8.507 3.16-3.705 4.024-8.752 6.24-14.213 6.24-3.486 0-6.899-.938-9.871-2.714-3.089-1.845-6.933-1.888-10.064-.112-3.13 1.776-5.064 5.098-5.064 8.697v65.567c0 5.406-2.315 10.585-6.351 14.207-4.101 3.682-9.415 5.377-14.957 4.776-9.159-.992-16.091-8.113-16.858-17.317-.671-8.05 3.589-15.479 10.853-18.93 3.487-1.657 5.709-5.173 5.709-9.033 0-3.861-2.223-7.377-5.71-9.033-6.635-3.151-10.922-9.928-10.922-17.265s4.287-14.113 10.922-17.265c3.487-1.656 5.71-5.172 5.71-9.033 0-3.86-2.222-7.376-5.709-9.033-7.145-3.394-11.414-10.701-10.876-18.617.638-9.397 8.199-17.004 17.588-17.693 2.571-.189 5.186.22 8.068 1.277 33.943 12.141 69.595 18.297 105.965 18.297 36.634 0 72.525-6.243 106.678-18.553.051-.017.102-.034.153-.052 2.562-.877 5.267-1.194 8.035-.938 9.021.831 16.408 8.27 17.182 17.301.691 8.07-3.567 15.52-10.848 18.978-3.487 1.656-5.71 5.172-5.71 9.033 0 3.86 2.222 7.377 5.709 9.033 6.635 3.151 10.922 9.928 10.922 17.265s-4.287 14.113-10.922 17.265c-3.487 1.656-5.709 5.173-5.709 9.033s2.222 7.38 5.709 9.036z"></path></g></g></svg>